<?xml version="1.0" encoding="UTF-8"?>
<svg id="Layer_1" xmlns="http://www.w3.org/2000/svg" version="1.1" viewBox="0 0 841.89 595.28">
  <!-- Generator: Adobe Illustrator 29.8.3, SVG Export Plug-In . SVG Version: 2.1.1 Build 3)  -->
  <defs>
    <style>
      .st0 {
        fill: #603913;
      }

      .st1 {
        fill: #fff;
      }

      .st2 {
        fill: #606060;
      }

      .st3 {
        fill: #3c2415;
      }

      .st4 {
        fill: #231f20;
      }

      .st5 {
        fill: #5704a0;
      }

      .st6 {
        display: none;
      }
    </style>
  </defs>
  <rect class="st5" width="841.89" height="595.28"/>
  <g>
    <g>
      <path class="st1" d="M332.09,308.38v-36.75h43.79v-21.42h-137.44v58.17h-13.41c-7.25,0-12.58,2.35-15.99,7.03-2.35,3.19-3.52,8.64-3.52,16.3v29.42c0,7.24,1.71,13.8,5.12,19.65,3.41,5.87,8.1,10.6,14.07,14.22,3.83,2.35,7.03,4.06,9.58,5.12,2.56,1.07,5.92,2.23,10.08,3.52,4.16,1.27,7.93,1.96,11.34,2.08,3.41.1,6.5.16,9.27.16,22.15,0,38.89-4.16,50.18-12.47,11.29-8.31,16.93-20.24,16.93-35.79v-27.81h22.69v76.06h28.77v-76.06h23.34v-21.42h-74.79ZM303.33,365.59c0,5.12-3.72,9.27-11.14,12.47-7.42,3.19-16,4.79-25.77,4.79-8.91,0-16.48-1.6-22.74-4.79-6.25-3.19-9.39-7.77-9.39-13.74v-28.77c-.21-2.13.64-3.73,2.56-4.79.62-.21,1.58-.54,2.86-.96h63.63v35.79ZM303.33,308.38h-36.75v-36.75h36.75v36.75Z"/>
      <path class="st1" d="M622.3,263.6c-8.37-10.26-19.18-17.97-31.28-21.68-2.32,2.98-12.76,14.38-15.14,16.95h-.01c9.32,3.12,18.31,10.42,24.06,18.52,5.12,7.45,7.68,16.09,7.68,25.88v57.86c0,7.03-2.56,12.68-7.68,16.93-5.1,4.27-11.07,6.39-17.9,6.39-5.97,0-11.08-2.02-15.34-6.08-4.27-4.04-6.39-9.8-6.39-17.25v-57.86c0-15.76-4.58-28.33-13.74-37.71-1.05-1.06-2.11-2.08-3.19-3.03-5.36-4.75-11.2-8.11-17.47-10.11-4.59-1.47-9.43-2.21-14.5-2.21h-14.38c-8.1,0-12.6.25-27.25.9-8.76.38-19.95,7.36-26.55,14.28-6.62,6.93-10.62,16.88-11.48,26.19-1.1,11.89-1.84,20.41-1.84,29.57v46.99c0,11.72,4.45,21.09,13.37,28.13,8.06,6.39,17.83,9.58,29.29,9.58s20.27-3.08,27.71-9.27c8.27-6.81,12.41-16.3,12.41-28.44v-32.6c0-12.35-3.41-21.84-10.23-28.46-5.75-5.75-12.89-8.62-21.42-8.62-10.64,0-18.11,3.83-22.36,11.51,0-2.13-3.65-36.29,22.72-36.29,7.96,0,15.96-.47,22.35-.47,8.35,0,14.8,2.02,19.35,6.05,5.63,4.89,8.45,12.86,8.45,23.92v57.72c0,15.93,6.18,27.95,18.53,36.02,8.95,5.95,18.55,8.93,28.77,8.93h4.48c16.4,0,29.35-4,38.83-12.02,9.47-8.02,14.22-20.03,14.22-36.05v-54.47c0-14.96-4.69-28.2-14.07-39.74ZM462.02,328.03c2.88-2.87,6.02-4.31,9.43-4.31s6.33,1.39,8.79,4.16c2.45,2.77,3.68,6.6,3.68,11.51v28.13c0,4.47-1.39,7.93-4.16,10.39-2.77,2.45-6.08,3.68-9.91,3.68-3.41,0-6.29-1.17-8.62-3.52-2.35-2.35-3.52-5.75-3.52-10.23v-28.44c0-4.68,1.44-8.47,4.31-11.35Z"/>
      <path class="st1" d="M375.25,168.74c-1.05-4.49-3-8.4-5.87-11.74-2.86-3.34-6.73-6.07-11.6-8.16-4.86-2.11-11.03-3.25-18.48-3.45h-6.31v-19.76c-.19-5.16-1.29-10.03-3.29-14.61-2-4.59-4.78-8.6-8.31-12.03-3.54-3.45-7.78-6.11-12.75-8.02s-10.59-2.88-16.9-2.88-11.98,1.01-17.04,3.01c-5.06,2.01-9.36,4.73-12.9,8.16-3.53,3.45-6.3,7.41-8.3,11.89-2.01,4.49-3.01,9.22-3.01,14.18v20.34h-8.6c-7.06,0-12.94.99-17.61,3.01-4.68,2-8.4,4.72-11.17,8.16-2.77,3.43-4.73,7.4-5.87,11.89-1.15,4.48-1.72,9.21-1.72,14.18v10.88c0,4.97.57,9.69,1.72,14.18,1.14,4.49,2.96,8.44,5.45,11.89,2.48,3.43,5.73,6.2,9.74,8.31,4,2.09,8.87,3.14,14.61,3.14,10.88,0,19.19-3.62,24.92-10.88,3.63,3.25,7.98,5.87,13.04,7.87,5.05,2.01,10.64,3.01,16.75,3.01s11.65-.95,16.62-2.86c4.96-1.91,9.25-4.59,12.88-8.02,3.63-3.43,6.45-7.45,8.46-12.03,2-4.59,3.1-9.45,3.29-14.61v-27.5h6.88c6.31.38,10.64,2.2,13.04,5.45,2.39,3.25,3.58,7.06,3.58,11.45v10.6c0,4.4-1.19,8.4-3.58,12.03-2.4,3.63-6.55,5.34-12.47,5.16v20.33c6.69,0,12.37-.99,17.04-3.01,4.68-2,8.46-4.72,11.32-8.16,2.86-3.43,4.92-7.45,6.16-12.02,1.23-4.59,1.86-9.36,1.86-14.33v-10.88c0-4.97-.53-9.7-1.58-14.18ZM250.51,193.8c0,4.59-1.15,8.55-3.45,11.89-2.29,3.34-5.73,5.01-10.31,5.01-3.82,0-6.59-1.72-8.31-5.16-1.71-3.43-2.57-7.34-2.57-11.74v-10.6c0-4.39,1.05-8.2,3.15-11.45,2.09-3.25,6.3-5.06,12.6-5.45h8.88v27.5ZM312.67,193.8c0,4.59-1.96,8.55-5.87,11.89-3.92,3.34-9.03,5.01-15.33,5.01-6.3-.38-11.31-2.19-15.03-5.45-3.72-3.23-5.59-7.05-5.59-11.45v-27.5h41.83v27.5ZM312.67,145.68h-41.83v-20.05c0-4.39,1.87-8.22,5.59-11.46,3.72-3.25,8.73-5.05,15.03-5.43,6.31,0,11.41,1.67,15.33,5.01,3.91,3.34,5.87,7.3,5.87,11.89v20.05Z"/>
      <path class="st1" d="M547.73,173.09c-7.55,0-14.22,2.11-19.92,5.22v7.28c2.72-.66,5.57-.99,8.52-.99.15,0,.3,0,.45.01,3.5-.74,7.26-1.17,11.36-1.18v-10.34h-.41ZM623.91,97.68c-8.31-6.59-20.29-9.78-35.94-9.6v-27.21h-20.05v27.21c-7.65,0-13.66,1.01-18.05,3.01-4.4,2.01-8.22,4.82-11.46,8.46-3.82-4.02-7.78-6.92-11.89-8.73s-8.92-2.73-14.46-2.73c-10.88,0-19.58,3.83-26.07,11.46-9.36-7.83-23.68-11.65-42.97-11.46-7.06,0-13.7.86-19.91,2.58-6.22,1.72-11.61,4.2-16.18,7.45-4.59,3.25-8.16,7.4-10.75,12.46-2.57,5.06-3.87,10.84-3.87,17.34v65.89c0,5.16.86,10.02,2.58,14.61,1.72,4.59,4.06,8.55,7.01,11.89,2.97,3.34,6.55,6.02,10.75,8.02,4.2,2.01,8.77,3.01,13.74,3.01s9.56-.99,13.76-3.01c4.2-2,7.78-4.68,10.74-8.02,2.97-3.34,5.26-7.3,6.88-11.89,1.62-4.59,2.44-9.45,2.44-14.61v-25.5c0-10.31-3.06-18.75-9.17-25.35-6.11-6.59-14.31-9.87-24.64-9.87-2.86,0-5.25.33-7.16.99-1.91.68-4.11,1.68-6.59,3.01l.29-8.88c0-2.29.52-4.59,1.56-6.87,1.05-2.29,2.77-4.35,5.16-6.16,2.39-1.82,5.54-3.3,9.46-4.44,3.91-1.15,8.73-1.72,14.46-1.72,12.03.2,20.49,1.91,25.35,5.16,4.88,3.25,7.3,7.08,7.3,11.46v105.7h20.34v-105.7c0-4.59,1.47-8.55,4.44-11.89,2.96-3.34,6.63-5.01,11.03-5.01s8.11,1.67,11.17,5.01c3.05,3.34,4.59,7.3,4.59,11.89v47.22c6.36-3.35,13.06-5.05,19.92-5.05h.41v-42.47c0-4.39,1.63-8.31,4.88-11.74,3.25-3.43,8.2-4.96,14.9-4.59v61.3c.09.01.17.04.27.05.94.19,1.89.39,2.83.58,2.41.51,4.89.67,7.34.48,3.61-.29,6.89-.91,9.62-2.4v-60.01c9.16-.57,16.13,1.01,20.9,4.73,4.77,3.72,7.17,8.26,7.17,13.61v38.26c.99-1.25,1.96-2.61,2.92-4.14l3.15-5.04-.02,3.15c-.03,5.63-1.03,11.24-3.17,16.45-.51,1.23-1.08,2.46-1.73,3.61-.34.62-.73,1.26-1.15,1.9v12.26c0,4.59-1.29,8.55-3.87,11.89-2.58,3.34-6.07,5.01-10.46,5.01s-7.78-1.67-10.17-5.01c-2.4-3.34-3.58-4.65-3.58-9.24v-1.83h-.08c-4.73-.28-9.91-1.3-15.41-3.06-.16-.05-.3-.09-.45-.13-.6-.2-1.18-.37-1.75-.54-.81-.24-1.59-.46-2.36-.66v6.23c0,3.34.34,3.92,1.02,7.02.37,1.68.84,3.33,1.4,4.93.57,1.62,1.23,3.15,1.97,4.61,1.35,2.69,3,5.12,4.9,7.28,2.96,3.34,6.55,6.02,10.75,8.02,4.19,2.01,8.77,3.01,13.74,3.01s9.54-.99,13.76-3.01c4.19-2,7.87-4.68,11.03-8.02,3.14-3.34,5.58-7.3,7.3-11.89,1.72-4.59,2.57-9.45,2.57-14.61v-65.61c0-13.74-4.15-23.91-12.46-30.51ZM416.37,158.7c2.29-3.34,5.63-5.01,10.02-5.01s7.78,1.72,10.18,5.16c2.39,3.43,3.58,7.45,3.58,12.03v22.92c0,4.59-1.19,8.55-3.58,11.89-2.4,3.34-5.78,5.01-10.18,5.01s-7.78-1.67-10.17-5.01c-2.39-3.34-3.58-7.3-3.58-11.89v-23.49c.19-4.4,1.43-8.27,3.72-11.61ZM616.04,170.32v6.02c3.37-5.96,4.04-11.52,4.04-11.52-1.31,2.09-2.65,3.91-4.04,5.5ZM547.73,173.09c-7.55,0-14.22,2.11-19.92,5.22v7.28c2.72-.66,5.57-.99,8.52-.99.15,0,.3,0,.45.01,3.5-.74,7.26-1.17,11.36-1.18v-10.34h-.41ZM547.73,173.09c-7.55,0-14.22,2.11-19.92,5.22v7.28c2.72-.66,5.57-.99,8.52-.99.15,0,.3,0,.45.01,3.5-.74,7.26-1.17,11.36-1.18v-10.34h-.41Z"/>
      <path class="st0" d="M559.69,219.88c0,6.35-2.09,11.81-6.28,16.38-4.2,4.56-9.49,6.84-15.89,6.84s-11.88-2.08-16.47-6.24c-4.6-4.18-6.89-9.44-6.89-15.79s2.09-11.81,6.28-16.37c2.16-2.36,4.63-4.11,7.37-5.24,2.58-1.09,5.43-1.62,8.52-1.62,4.35,0,8.28.97,11.81,2.9,1.64.9,3.21,2.01,4.67,3.35,4.6,4.16,6.89,9.42,6.89,15.77Z"/>
      <path class="st4" d="M616.04,170.32c-3.37,3.84-6.98,6.28-10.83,7.74-.41.16-.84.3-1.26.44-.44.15-.89.28-1.34.4.34-.32.66-.65.95-.97.32-.33.6-.66.86-.99,5.04-6.31,3.25-13.11,3.25-13.11-2.73,8.93-8.07,12.47-14.83,13.93-.41.09-.84.17-1.27.25h-.01c-.44.07-.86.15-1.31.2.36-.27.69-.53,1.01-.81.33-.28.64-.56.93-.85,5.39-5.43,3.7-11.88,3.7-11.88-1.56,5.1-4.37,8.38-7.89,10.1-2.62,1.27-5.67,1.44-8.86,1.85-3.76.48-9.66-.69-11.21-1.01-6.19-1.27-12.63-2.36-19.28-2.52-.16-.01-.33-.01-.49-.01h-.41c-7.55,0-14.22,2.11-19.92,5.22-15.89,8.69-24.41,25.16-24.41,25.16,8.64-7.09,18.6-15.77,33.39-18.86,3.5-.74,7.26-1.17,11.36-1.18h.28c5.81,0,12.27.82,19.5,2.76,1.13.29,2.28.62,3.45.99.24.05.48.13.73.23.27.07.53.16.8.24.45.15.8.28,1.23.41h.11c.69.21,1.37.41,2.03.57,4.31,1.18,8.2,1.82,11.72,2.01.84.05,1.64.07,2.44.07,14.25,0,21.74-7.46,25.63-14.37,3.37-5.96,4.04-11.52,4.04-11.52-1.31,2.09-2.65,3.91-4.04,5.5Z"/>
      <path class="st3" d="M549.79,220.14c0,3.59-1.18,6.68-3.55,9.26-2.37,2.58-5.36,3.87-8.98,3.87s-6.71-1.18-9.31-3.53c-2.6-2.36-3.9-5.33-3.9-8.92s1.18-6.68,3.55-9.25c1.22-1.33,2.61-2.32,4.17-2.96,1.46-.61,3.07-.91,4.82-.91,2.46,0,4.68.55,6.68,1.64.93.51,1.81,1.14,2.64,1.9,2.6,2.35,3.9,5.33,3.9,8.92Z"/>
      <path class="st1" d="M554.11,212.79c0,2.4-.79,4.46-2.37,6.18-1.59,1.72-3.58,2.58-6,2.58s-4.48-.79-6.22-2.36c-1.74-1.58-2.6-3.56-2.6-5.96s.79-4.46,2.37-6.18c.82-.89,1.75-1.55,2.78-1.98.98-.41,2.05-.61,3.22-.61,1.64,0,3.13.37,4.46,1.1.62.34,1.21.76,1.76,1.27,1.74,1.57,2.6,3.56,2.6,5.95Z"/>
    </g>
    <g>
      <rect class="st1" x="205.52" y="425.49" width="430.85" height="108.91" rx="6.98" ry="6.98"/>
      <g class="st6">
        <path class="st5" d="M285.35,516.76l-28.49-32.94v32.94h-12.07v-73.62h12.07v33.58l28.6-33.58h15.15l-31.99,36.86,32.52,36.75h-15.78Z"/>
        <path class="st5" d="M567.67,443.14v73.62h-12.07v-32.2h-34.64v32.2h-12.07v-73.62h12.07v31.56h34.64v-31.56h12.07Z"/>
        <path class="st5" d="M597.1,443.14v73.62h-12.07v-73.62h12.07Z"/>
        <circle class="st5" cx="337.08" cy="494.82" r="19.47"/>
        <circle class="st5" cx="437.99" cy="492.83" r="19.47"/>
        <path class="st5" d="M339.65,516.76c-6.9,0-12.58-.47-17.02-1.4-4.45-.94-7.92-2.66-10.42-5.18-2.5-2.52-4.25-6.14-5.24-10.86-1-4.72-1.49-10.87-1.49-18.45v-1.84c0-6.26.31-11.51.92-15.76.61-4.25,1.67-7.71,3.18-10.38,1.5-2.67,3.55-4.71,6.14-6.12,2.59-1.41,5.85-2.37,9.78-2.87,3.93-.51,8.65-.76,14.17-.76h18.54c5.52,0,10.24.25,14.17.76,3.93.51,7.18,1.46,9.78,2.87,2.59,1.41,4.64,3.45,6.14,6.12,1.5,2.67,2.56,6.13,3.18,10.38s.92,9.5.92,15.76v1.84c0,7.58-.5,13.73-1.5,18.45-1,4.72-2.75,8.34-5.24,10.86-2.5,2.51-5.98,4.24-10.42,5.18-4.45.93-10.12,1.4-17.02,1.4h-18.54ZM339.65,509.12h18.54c4.39,0,8.08-.15,11.09-.46,3-.31,5.45-.97,7.34-1.98,1.89-1.01,3.33-2.55,4.32-4.6,1-2.06,1.68-4.8,2.05-8.24.37-3.44.55-7.76.55-12.98v-1.84c0-5.4-.18-9.85-.55-13.34-.37-3.5-1.05-6.26-2.05-8.28-1-2.02-2.44-3.5-4.32-4.44-1.89-.94-4.33-1.53-7.34-1.8-3.01-.26-6.7-.39-11.09-.39h-18.54c-4.39,0-8.08.13-11.09.39-3.01.26-5.45.86-7.34,1.8-1.89.94-3.33,2.42-4.33,4.44-1,2.02-1.68,4.78-2.05,8.28-.37,3.5-.55,7.95-.55,13.34v1.84c0,5.22.18,9.54.55,12.98.37,3.44,1.05,6.18,2.05,8.24,1,2.06,2.44,3.59,4.33,4.6,1.89,1.01,4.33,1.67,7.34,1.98,3,.31,6.7.46,11.09.46Z"/>
        <path class="st5" d="M404.16,480.87v-1.84c0-6.26.31-11.51.92-15.76.61-4.25,1.67-7.71,3.18-10.38,1.5-2.67,3.55-4.71,6.14-6.12,2.59-1.41,5.85-2.37,9.78-2.87,3.93-.51,8.65-.76,14.17-.76h18.54c6.32,0,11.65.3,15.99.9,4.34.6,7.84,1.78,10.49,3.54,2.65,1.76,4.58,4.36,5.77,7.78,1.2,3.42,1.8,7.95,1.8,13.6h-8.84c0-4.45-.4-7.91-1.2-10.37-.8-2.47-2.14-4.26-4.03-5.36-1.89-1.11-4.46-1.79-7.71-2.05-3.25-.26-7.35-.39-12.29-.39h-18.54c-4.39,0-8.08.13-11.09.39-3.01.26-5.45.86-7.34,1.8-1.89.94-3.33,2.42-4.33,4.44-1,2.02-1.68,4.78-2.05,8.28-.37,3.5-.55,7.95-.55,13.34v1.84c0,5.22.18,9.54.55,12.98.37,3.44,1.05,6.18,2.05,8.24,1,2.06,2.44,3.59,4.33,4.6,1.89,1.01,4.33,1.67,7.34,1.98,3,.31,6.7.46,11.09.46h18.54c4.94,0,9.03-.11,12.29-.32,3.25-.22,5.82-.84,7.71-1.89,1.89-1.04,3.23-2.78,4.03-5.22.8-2.44,1.2-5.87,1.2-10.28h8.84c0,5.64-.6,10.15-1.8,13.53-1.2,3.37-3.12,5.91-5.77,7.62-2.65,1.7-6.15,2.83-10.49,3.38-4.34.55-9.67.83-15.99.83h-18.54c-6.9,0-12.58-.47-17.02-1.4-4.45-.94-7.92-2.66-10.42-5.18-2.5-2.52-4.25-6.14-5.24-10.86-1-4.72-1.49-10.87-1.49-18.45Z"/>
        <rect class="st5" x="383.55" y="467.41" width="28.02" height="19.62"/>
      </g>
      <g class="st6">
        <path class="st5" d="M506.09,440.3c.38-.59.5-.49,1.04-.52,4.43-.25,8.85.29,13.28.32l-.47,34.84v1.71s51.55,0,51.55,0v-36.35l.74-.55,13.63.3v80.11h-14.37v-37.09s-51.5,0-51.5,0l-.02.74v36.35h-13.87v-79.86Z"/>
        <path class="st5" d="M344.48,438.71c-31.46,3.2-51.2,37.97-31.52,64.8,19.68,26.82,65.87,22.93,78.77-8.24,13.1-31.66-15.57-59.78-47.25-56.56ZM349.32,519.19c-31.55-.36-35.24-51.92-17.89-70.53,8.51-9.13,23.44-10.07,33.53-2.99,23.76,16.66,18.67,73.9-15.64,73.52Z"/>
        <path class="st5" d="M486.77,445v24.73c-4.58-9.27-7.81-19.92-17.83-25.48-7.19-3.99-16.74-5.14-24.47-2.15-24.58,9.5-28.07,55.32-7.21,69.87,16.96,11.83,36.59,1.6,49.5-11.09,0,1.67.18,3.87-.25,5.43-.3,1.09-7.56,6.37-9,7.34-16.06,10.77-36.3,10.15-52.33-.49-33.38-22.18-17.43-68.28,19.87-73.94,14.63-2.22,28.08.77,41.72,5.79Z"/>
        <path class="st5" d="M288.85,520.16c-2.6,0-4.21-1.93-5.03-2.64,0,0,0,0-.01-.01l-28.65-34.45c-.54-.82-4.85-.11-6.94,0-1.94.11-3.93.02-5.87-.06-1.26-.41-1.26-5.88,0-6.29,4.53-.04,9.13-.22,13.56-1.3,17.01-4.14,27.06-22.25,37.42-34.85,1.07-1.18,8.67-1.55,8.64-.27-10.81,12.75-19.59,28.33-34.2,37.11l34.44,42.63c-4.04.12-9.37.13-13.36.13Z"/>
        <path class="st5" d="M604.68,520.16v-80.11c4.08-1.18,8.44.98,12.65-.37l.72,1.11-.25,79.37h-13.13Z"/>
        <rect class="st5" x="222.71" y="440.36" width="13.38" height="79.8"/>
      </g>
      <g>
        <path class="st5" d="M314.65,510.43c-18.74-19.22-15.78-49.72,5.84-66.12,25.91-19.66,68.95-14.41,85,13.21-4.08,9.55-5.9,19.93-4.63,30.2.49,3.99,4.47,11.33,4.11,14.39s-8.51,11.09-11.37,13.28c-23.07,17.71-59.06,15.45-78.95-4.96ZM355.21,451.29c-39.53,2.08-36.3,57.9,2.25,57.37,40.31-.56,38.57-59.51-2.25-57.37Z"/>
        <polygon class="st5" points="249.41 434.44 249.41 477.57 289.77 434.44 317.52 434.44 280.63 473.27 320.05 525.25 291.88 525.25 263.28 488.17 249.41 502.17 249.41 525.25 225.87 525.25 225.87 434.44 249.41 434.44"/>
        <polygon class="st5" points="521.86 434.44 521.86 469.63 523.12 470.76 565.58 470.76 565.58 434.44 586.61 434.44 586.61 525.25 565.58 525.25 565.58 488.92 521.86 488.92 521.86 525.25 498.31 525.25 498.31 434.44 521.86 434.44"/>
        <path class="st5" d="M492.25,441.41l.04,13.72-8.3,6.21h-1.65c-18.21-18.51-49.72-9.39-51.34,15.82-1.88,29.25,31.7,41.85,52.58,20.12l8.71,5.76-.29,14.63c-21.68,14.86-55.82,12.49-73.55-6.45-15.51-16.57-16.44-43.32-1.69-60.49,17.54-20.43,52.24-24.01,75.49-9.32Z"/>
        <rect class="st5" x="592.49" y="434.44" width="23.54" height="90.8"/>
      </g>
    </g>
  </g>
  <g>
    <path class="st2" d="M-739.19-505.36c-22.28-25.4-18.77-65.7,6.95-87.39,30.81-25.98,82-19.05,101.08,17.45-4.85,12.62-7.01,26.34-5.51,39.91.58,5.27,5.31,14.98,4.89,19.02s-10.12,14.65-13.53,17.56c-27.43,23.4-70.23,20.42-93.89-6.55ZM-690.96-583.51c-47.01,2.74-43.17,76.52,2.68,75.82,47.93-.74,45.87-78.65-2.68-75.82Z"/>
    <polygon class="st2" points="-816.77 -605.78 -816.77 -548.78 -768.77 -605.78 -735.77 -605.78 -779.65 -554.46 -732.77 -485.78 -766.27 -485.78 -800.28 -534.77 -816.77 -516.28 -816.77 -485.78 -844.77 -485.78 -844.77 -605.78 -816.77 -605.78"/>
    <polygon class="st2" points="-492.77 -605.78 -492.77 -559.28 -491.27 -557.78 -440.77 -557.78 -440.77 -605.78 -415.77 -605.78 -415.77 -485.78 -440.77 -485.78 -440.77 -533.78 -492.77 -533.78 -492.77 -485.78 -520.77 -485.78 -520.77 -605.78 -492.77 -605.78"/>
    <path class="st2" d="M-527.98-596.58l.05,18.14-9.87,8.21-1.96.02c-21.65-24.49-59.13-12.43-61.05,20.89-2.23,38.65,37.7,55.31,62.53,26.59l10.36,7.62-.34,19.33c-25.78,19.63-66.38,16.5-87.47-8.53-18.45-21.9-19.55-57.25-2.01-79.95,20.86-27,62.12-31.73,89.77-12.32Z"/>
    <rect class="st2" x="-408.77" y="-605.78" width="28" height="120"/>
  </g>
</svg>